<?xml version="1.0" encoding="utf-8"?>
<!-- Svg Vector Icons : http://www.onlinewebfonts.com/icon -->
<!DOCTYPE svg PUBLIC "-//W3C//DTD SVG 1.1//EN" "http://www.w3.org/Graphics/SVG/1.1/DTD/svg11.dtd">
<svg version="1.1" xmlns="http://www.w3.org/2000/svg" xmlns:xlink="http://www.w3.org/1999/xlink" x="0px" y="0px" viewBox="0 0 1000 1000" enable-background="new 0 0 1000 1000" xml:space="preserve">
<metadata> Svg Vector Icons : http://www.onlinewebfonts.com/icon </metadata>
<g fill="#6E6E6E"><path d="M101.8,745C51.2,745,10,703.9,10,653.2V132.5c0-50.7,41.2-91.8,91.9-91.8h796.3c50.7,0,91.8,41.1,91.8,91.8v520.7c0,50.7-41.1,91.8-91.8,91.8h-91.9v214.3L500,745H101.8L101.8,745z M71.3,147.8v490c0,25.4,20.6,45.9,45.9,45.9h413.5L745,836.9V683.8h137.8c25.3,0,45.9-20.5,45.9-45.9v-490c0-25.3-20.6-45.9-45.9-45.9H117.2C91.8,101.9,71.2,122.5,71.3,147.8L71.3,147.8L71.3,147.8z"/></g>
</svg>